<mxfile host="app.diagrams.net" modified="2024-07-07T06:58:45.031Z" agent="Mozilla/5.0 (Windows NT 10.0; Win64; x64) AppleWebKit/537.36 (KHTML, like Gecko) Chrome/109.0.0.0 Safari/537.36 SLBrowser/9.0.3.5211 SLBChan/33" version="24.6.4" etag="c08Rg_8z_an457Yx4JpQ" type="github">
  <diagram name="第 1 页" id="a9xIx573PW4Ug89zHTlq">
    <mxGraphModel>
      <root>
        <mxCell id="0" />
        <mxCell id="1" parent="0" />
      </root>
    </mxGraphModel>
  </diagram>
</mxfile>
